<svg xmlns="http://www.w3.org/2000/svg" xmlns:xlink="http://www.w3.org/1999/xlink" width="500" zoomAndPan="magnify" viewBox="0 0 375 374.999991" height="500" preserveAspectRatio="xMidYMid meet" version="1.0"><defs><g/><clipPath id="3108dd8e60"><path d="M 25 183 L 72 183 L 72 228 L 25 228 Z M 25 183 " clip-rule="nonzero"/></clipPath><clipPath id="79c0aa0e4c"><path d="M 4.011719 213.933594 L 39.613281 160.152344 L 93.398438 195.753906 L 57.796875 249.539062 Z M 4.011719 213.933594 " clip-rule="nonzero"/></clipPath><clipPath id="298b0dbbd8"><path d="M 4.011719 213.933594 L 39.613281 160.152344 L 93.398438 195.753906 L 57.796875 249.539062 Z M 4.011719 213.933594 " clip-rule="nonzero"/></clipPath><clipPath id="0eacb1c9e7"><path d="M 54 195 L 58 195 L 58 200 L 54 200 Z M 54 195 " clip-rule="nonzero"/></clipPath><clipPath id="4b24769ade"><path d="M 4.011719 213.933594 L 39.613281 160.152344 L 93.398438 195.753906 L 57.796875 249.539062 Z M 4.011719 213.933594 " clip-rule="nonzero"/></clipPath><clipPath id="f17f83a51d"><path d="M 4.011719 213.933594 L 39.613281 160.152344 L 93.398438 195.753906 L 57.796875 249.539062 Z M 4.011719 213.933594 " clip-rule="nonzero"/></clipPath><clipPath id="c5e737e7f2"><path d="M 61 196 L 65 196 L 65 200 L 61 200 Z M 61 196 " clip-rule="nonzero"/></clipPath><clipPath id="8221bc5e2b"><path d="M 4.011719 213.933594 L 39.613281 160.152344 L 93.398438 195.753906 L 57.796875 249.539062 Z M 4.011719 213.933594 " clip-rule="nonzero"/></clipPath><clipPath id="c1bac47049"><path d="M 4.011719 213.933594 L 39.613281 160.152344 L 93.398438 195.753906 L 57.796875 249.539062 Z M 4.011719 213.933594 " clip-rule="nonzero"/></clipPath><clipPath id="e6845fc948"><path d="M 62 201 L 65 201 L 65 204 L 62 204 Z M 62 201 " clip-rule="nonzero"/></clipPath><clipPath id="e4c285c97c"><path d="M 4.011719 213.933594 L 39.613281 160.152344 L 93.398438 195.753906 L 57.796875 249.539062 Z M 4.011719 213.933594 " clip-rule="nonzero"/></clipPath><clipPath id="75c0e8661d"><path d="M 4.011719 213.933594 L 39.613281 160.152344 L 93.398438 195.753906 L 57.796875 249.539062 Z M 4.011719 213.933594 " clip-rule="nonzero"/></clipPath><clipPath id="18e6d425e8"><path d="M 56 202 L 58 202 L 58 205 L 56 205 Z M 56 202 " clip-rule="nonzero"/></clipPath><clipPath id="ebb0aa23b4"><path d="M 4.011719 213.933594 L 39.613281 160.152344 L 93.398438 195.753906 L 57.796875 249.539062 Z M 4.011719 213.933594 " clip-rule="nonzero"/></clipPath><clipPath id="2949f74cc2"><path d="M 4.011719 213.933594 L 39.613281 160.152344 L 93.398438 195.753906 L 57.796875 249.539062 Z M 4.011719 213.933594 " clip-rule="nonzero"/></clipPath><clipPath id="3492bd1c57"><path d="M 33 207 L 35 207 L 35 210 L 33 210 Z M 33 207 " clip-rule="nonzero"/></clipPath><clipPath id="6539948d61"><path d="M 4.011719 213.933594 L 39.613281 160.152344 L 93.398438 195.753906 L 57.796875 249.539062 Z M 4.011719 213.933594 " clip-rule="nonzero"/></clipPath><clipPath id="42bbc072b5"><path d="M 4.011719 213.933594 L 39.613281 160.152344 L 93.398438 195.753906 L 57.796875 249.539062 Z M 4.011719 213.933594 " clip-rule="nonzero"/></clipPath><clipPath id="e971df549b"><path d="M 31 202 L 35 202 L 35 206 L 31 206 Z M 31 202 " clip-rule="nonzero"/></clipPath><clipPath id="e8892dcede"><path d="M 4.011719 213.933594 L 39.613281 160.152344 L 93.398438 195.753906 L 57.796875 249.539062 Z M 4.011719 213.933594 " clip-rule="nonzero"/></clipPath><clipPath id="675e298c1c"><path d="M 4.011719 213.933594 L 39.613281 160.152344 L 93.398438 195.753906 L 57.796875 249.539062 Z M 4.011719 213.933594 " clip-rule="nonzero"/></clipPath><clipPath id="68154878ea"><path d="M 39 206 L 42 206 L 42 208 L 39 208 Z M 39 206 " clip-rule="nonzero"/></clipPath><clipPath id="f14b2dfb48"><path d="M 4.011719 213.933594 L 39.613281 160.152344 L 93.398438 195.753906 L 57.796875 249.539062 Z M 4.011719 213.933594 " clip-rule="nonzero"/></clipPath><clipPath id="ed4922a0ce"><path d="M 4.011719 213.933594 L 39.613281 160.152344 L 93.398438 195.753906 L 57.796875 249.539062 Z M 4.011719 213.933594 " clip-rule="nonzero"/></clipPath><clipPath id="6673820611"><path d="M 37 199 L 41 199 L 41 203 L 37 203 Z M 37 199 " clip-rule="nonzero"/></clipPath><clipPath id="22dc8971d9"><path d="M 4.011719 213.933594 L 39.613281 160.152344 L 93.398438 195.753906 L 57.796875 249.539062 Z M 4.011719 213.933594 " clip-rule="nonzero"/></clipPath><clipPath id="803c84b225"><path d="M 4.011719 213.933594 L 39.613281 160.152344 L 93.398438 195.753906 L 57.796875 249.539062 Z M 4.011719 213.933594 " clip-rule="nonzero"/></clipPath><clipPath id="9fb92aa22e"><path d="M 204 105 L 276 105 L 276 155 L 204 155 Z M 204 105 " clip-rule="nonzero"/></clipPath><clipPath id="fb712514f9"><path d="M 197.914062 123.003906 L 268 90.515625 L 284.085938 125.21875 L 214 157.707031 Z M 197.914062 123.003906 " clip-rule="nonzero"/></clipPath><clipPath id="e32062ff64"><path d="M 268.320312 90.367188 L 198.234375 122.859375 L 214.320312 157.5625 L 284.40625 125.070312 Z M 268.320312 90.367188 " clip-rule="nonzero"/></clipPath><clipPath id="2238c0a00b"><path d="M 12.65625 240.152344 L 361.570312 240.152344 L 361.570312 261.609375 L 12.65625 261.609375 Z M 12.65625 240.152344 " clip-rule="nonzero"/></clipPath></defs><g fill="#050276" fill-opacity="1"><g transform="translate(15.074832, 236.753435)"><g><path d="M -2.640625 0 L 19.796875 -82 L 27.21875 -42.890625 L 35.796875 -42.890625 L 24.78125 -99.890625 L 60.453125 -99.890625 L 79.828125 0 L 44.234375 0 L 37.625 -33.90625 L 29.046875 -33.90625 L 35.65625 0 Z M -2.640625 0 "/></g></g></g><g clip-path="url(#3108dd8e60)"><g clip-path="url(#79c0aa0e4c)"><g clip-path="url(#298b0dbbd8)"><path fill="#ffffff" d="M 44.207031 183.191406 C 44.207031 183.191406 44.203125 183.191406 44.203125 183.191406 C 42.539062 183.972656 41.035156 185.003906 41.722656 191.570312 C 41.9375 193.644531 42.375 196.246094 42.941406 199.070312 C 42.941406 199.070312 34.363281 203.304688 34.363281 203.304688 C 34.363281 203.304688 25.324219 207.765625 25.324219 207.765625 C 25.53125 208.695312 25.734375 209.625 25.9375 210.554688 C 32.136719 209.09375 38.332031 207.628906 44.53125 206.164062 C 45.777344 211.273438 47.210938 216.3125 48.410156 219.757812 C 48.570312 220.222656 48.726562 220.65625 48.878906 221.0625 C 48.878906 221.0625 48.875 221.0625 48.875 221.0625 C 48.875 221.0625 44.839844 223.167969 44.839844 223.167969 C 44.839844 223.167969 40 225.6875 40 225.6875 C 40.117188 226.234375 40.238281 226.78125 40.355469 227.324219 C 43.769531 226.511719 47.179688 225.695312 50.59375 224.878906 C 51.527344 226.054688 51.945312 226.3125 53.007812 226.539062 C 53.953125 225.902344 54.171875 225.621094 54.613281 224.058594 C 54.613281 224.058594 54.617188 224.058594 54.617188 224.058594 C 58.074219 223.476562 61.535156 222.894531 64.996094 222.3125 C 64.894531 221.765625 64.789062 221.214844 64.683594 220.667969 C 64.683594 220.667969 59.246094 220.234375 59.246094 220.234375 C 59.246094 220.234375 54.707031 219.875 54.707031 219.875 C 54.707031 219.875 54.703125 219.875 54.703125 219.875 C 54.6875 219.445312 54.660156 218.984375 54.628906 218.496094 C 54.382812 214.855469 53.734375 209.652344 52.886719 204.464844 C 59.164062 203.390625 65.441406 202.316406 71.71875 201.246094 C 71.542969 200.308594 71.367188 199.371094 71.191406 198.433594 C 71.191406 198.433594 61.128906 197.859375 61.128906 197.859375 C 61.128906 197.859375 51.578125 197.3125 51.578125 197.3125 C 50.996094 194.492188 50.382812 191.925781 49.769531 189.929688 C 47.839844 183.625 46.050781 183.257812 44.214844 183.191406 C 44.210938 183.191406 44.210938 183.191406 44.207031 183.191406 " fill-opacity="1" fill-rule="nonzero"/></g></g></g><g clip-path="url(#0eacb1c9e7)"><g clip-path="url(#4b24769ade)"><g clip-path="url(#f17f83a51d)"><path fill="#ffffff" d="M 57.347656 197.109375 C 57.210938 196.433594 56.875 195.929688 56.597656 195.984375 C 56.597656 195.984375 54.585938 196.394531 54.585938 196.394531 C 54.308594 196.453125 54.195312 197.046875 54.332031 197.722656 C 54.332031 197.722656 54.367188 197.894531 54.367188 197.894531 C 54.503906 198.570312 54.839844 199.074219 55.117188 199.015625 C 55.117188 199.015625 57.128906 198.605469 57.128906 198.605469 C 57.40625 198.550781 57.519531 197.957031 57.382812 197.28125 C 57.382812 197.28125 57.347656 197.109375 57.347656 197.109375 " fill-opacity="1" fill-rule="nonzero"/></g></g></g><g clip-path="url(#c5e737e7f2)"><g clip-path="url(#8221bc5e2b)"><g clip-path="url(#c1bac47049)"><path fill="#ffffff" d="M 64.273438 197.851562 C 64.136719 197.175781 63.800781 196.675781 63.523438 196.730469 C 63.523438 196.730469 61.511719 197.140625 61.511719 197.140625 C 61.234375 197.195312 61.121094 197.789062 61.257812 198.464844 C 61.257812 198.464844 61.292969 198.636719 61.292969 198.636719 C 61.433594 199.316406 61.769531 199.816406 62.042969 199.761719 C 62.042969 199.761719 64.058594 199.351562 64.058594 199.351562 C 64.332031 199.296875 64.445312 198.703125 64.308594 198.023438 C 64.308594 198.023438 64.273438 197.851562 64.273438 197.851562 " fill-opacity="1" fill-rule="nonzero"/></g></g></g><g clip-path="url(#e6845fc948)"><g clip-path="url(#e4c285c97c)"><g clip-path="url(#75c0e8661d)"><path fill="#ffffff" d="M 64.429688 202.40625 C 64.5 202.75 64.441406 203.050781 64.300781 203.078125 C 64.300781 203.078125 63.277344 203.289062 63.277344 203.289062 C 63.136719 203.316406 62.964844 203.0625 62.894531 202.714844 C 62.894531 202.714844 62.875 202.628906 62.875 202.628906 C 62.804688 202.285156 62.863281 201.980469 63.003906 201.953125 C 63.003906 201.953125 64.03125 201.746094 64.03125 201.746094 C 64.171875 201.714844 64.339844 201.972656 64.410156 202.316406 C 64.410156 202.316406 64.429688 202.40625 64.429688 202.40625 " fill-opacity="1" fill-rule="nonzero"/></g></g></g><g clip-path="url(#18e6d425e8)"><g clip-path="url(#ebb0aa23b4)"><g clip-path="url(#2949f74cc2)"><path fill="#ffffff" d="M 57.925781 203.367188 C 58.003906 203.746094 57.941406 204.074219 57.785156 204.105469 C 57.785156 204.105469 56.664062 204.335938 56.664062 204.335938 C 56.507812 204.367188 56.320312 204.085938 56.246094 203.710938 C 56.246094 203.710938 56.226562 203.613281 56.226562 203.613281 C 56.148438 203.238281 56.210938 202.90625 56.367188 202.875 C 56.367188 202.875 57.488281 202.644531 57.488281 202.644531 C 57.640625 202.613281 57.828125 202.894531 57.90625 203.273438 C 57.90625 203.273438 57.925781 203.367188 57.925781 203.367188 " fill-opacity="1" fill-rule="nonzero"/></g></g></g><g clip-path="url(#3492bd1c57)"><g clip-path="url(#6539948d61)"><g clip-path="url(#42bbc072b5)"><path fill="#ffffff" d="M 33.101562 208.777344 C 33.171875 209.121094 33.339844 209.378906 33.480469 209.347656 C 33.480469 209.347656 34.507812 209.140625 34.507812 209.140625 C 34.648438 209.113281 34.707031 208.808594 34.636719 208.464844 C 34.636719 208.464844 34.617188 208.378906 34.617188 208.378906 C 34.546875 208.03125 34.375 207.777344 34.234375 207.804688 C 34.234375 207.804688 33.210938 208.015625 33.210938 208.015625 C 33.070312 208.042969 33.011719 208.34375 33.082031 208.6875 C 33.082031 208.6875 33.101562 208.777344 33.101562 208.777344 " fill-opacity="1" fill-rule="nonzero"/></g></g></g><g clip-path="url(#e971df549b)"><g clip-path="url(#e8892dcede)"><g clip-path="url(#675e298c1c)"><path fill="#ffffff" d="M 31.464844 204.527344 C 31.328125 203.851562 31.441406 203.257812 31.71875 203.199219 C 31.71875 203.199219 33.730469 202.789062 33.730469 202.789062 C 34.007812 202.734375 34.34375 203.238281 34.480469 203.914062 C 34.480469 203.914062 34.515625 204.085938 34.515625 204.085938 C 34.652344 204.761719 34.539062 205.355469 34.261719 205.410156 C 34.261719 205.410156 32.25 205.820312 32.25 205.820312 C 31.972656 205.878906 31.636719 205.375 31.5 204.699219 C 31.5 204.699219 31.464844 204.527344 31.464844 204.527344 " fill-opacity="1" fill-rule="nonzero"/></g></g></g><g clip-path="url(#68154878ea)"><g clip-path="url(#f14b2dfb48)"><g clip-path="url(#ed4922a0ce)"><path fill="#ffffff" d="M 39.425781 207.128906 C 39.503906 207.507812 39.691406 207.789062 39.84375 207.757812 C 39.84375 207.757812 40.96875 207.527344 40.96875 207.527344 C 41.121094 207.496094 41.183594 207.164062 41.109375 206.789062 C 41.109375 206.789062 41.089844 206.691406 41.089844 206.691406 C 41.011719 206.316406 40.824219 206.035156 40.671875 206.066406 C 40.671875 206.066406 39.546875 206.296875 39.546875 206.296875 C 39.394531 206.328125 39.332031 206.65625 39.40625 207.035156 C 39.40625 207.035156 39.425781 207.128906 39.425781 207.128906 " fill-opacity="1" fill-rule="nonzero"/></g></g></g><g clip-path="url(#6673820611)"><g clip-path="url(#22dc8971d9)"><g clip-path="url(#803c84b225)"><path fill="#ffffff" d="M 37.515625 201.140625 C 37.378906 200.464844 37.488281 199.871094 37.765625 199.816406 C 37.765625 199.816406 39.777344 199.40625 39.777344 199.40625 C 40.054688 199.351562 40.390625 199.851562 40.527344 200.527344 C 40.527344 200.527344 40.5625 200.703125 40.5625 200.703125 C 40.699219 201.378906 40.589844 201.972656 40.3125 202.027344 C 40.3125 202.027344 38.300781 202.4375 38.300781 202.4375 C 38.023438 202.492188 37.6875 201.992188 37.550781 201.316406 C 37.550781 201.316406 37.515625 201.140625 37.515625 201.140625 " fill-opacity="1" fill-rule="nonzero"/></g></g></g><g fill="#050276" fill-opacity="1"><g transform="translate(96.256148, 235.722156)"><g><path d="M 3.375 0 L 3.375 -75.765625 L 30.328125 -75.765625 L 30.328125 0 Z M 3.375 0 "/></g></g></g><g fill="#050276" fill-opacity="1"><g transform="translate(132.836451, 236.559946)"><g><path d="M 61.484375 0 L 45.859375 -61.0625 L 49.75 -75.765625 L 67.171875 -75.765625 L 86.375 0 Z M -2 0 L 10.609375 -48.671875 L 23.109375 0 Z M 29.609375 0 L 13.9375 -61.0625 L 17.828125 -75.765625 L 35.25 -75.765625 L 54.5625 0 Z M 29.609375 0 "/></g></g></g><g fill="#f2632a" fill-opacity="1"><g transform="translate(309.627992, 235.310213)"><g><path d="M 30.84375 -75.3125 L 51.75 -75.3125 L 51.75 0 L 30.84375 0 Z M 24.953125 -53.953125 L 24.953125 0 C 17.472656 -0.75 11.691406 -3.472656 7.609375 -8.171875 C 3.523438 -12.867188 1.484375 -19.160156 1.484375 -27.046875 C 1.484375 -34.835938 3.539062 -41.097656 7.65625 -45.828125 C 11.769531 -50.554688 17.535156 -53.265625 24.953125 -53.953125 Z M 24.953125 -53.953125 "/></g></g></g><g fill="#f2632a" fill-opacity="1"><g transform="translate(225.860409, 236.11586)"><g><path d="M 41.578125 0 L 4.703125 0 L 4.703125 -105.296875 L 41.578125 -105.296875 Z M 44.640625 -105.296875 L 81.078125 -105.296875 L 81.078125 -64.71875 Z M 67.203125 -33.109375 L 44.203125 -54.8125 L 67.203125 -76.53125 Z M 44.640625 0 L 81.65625 -47.40625 L 81.65625 0 Z M 44.640625 0 "/></g></g></g><g clip-path="url(#9fb92aa22e)"><g clip-path="url(#fb712514f9)"><g clip-path="url(#e32062ff64)"><path fill="#050276" d="M 210.882812 147.773438 C 210.828125 150.117188 212.902344 154.613281 212.902344 154.613281 C 213.046875 154.640625 213.1875 154.648438 213.320312 154.648438 L 212.675781 151.46875 C 212.675781 151.46875 213.75 153.277344 214.214844 154.40625 C 215.742188 154.230469 216.203125 153.1875 216.203125 153.1875 C 214.921875 149.472656 213.609375 147.660156 212.832031 146.820312 C 212.953125 146.464844 212.949219 146.078125 212.789062 145.710938 C 212.53125 145.113281 211.925781 144.757812 211.3125 144.785156 L 208.394531 138.269531 L 218.824219 138.171875 C 219.613281 138.167969 220.144531 137.367188 219.835938 136.636719 L 218.75 134.03125 C 218.617188 133.691406 218.648438 133.320312 218.835938 133.015625 C 228.214844 117.855469 239.59375 113.410156 247.476562 112.351562 C 256.0625 111.203125 262.351562 113.65625 262.613281 113.757812 L 262.625 113.765625 C 262.902344 113.871094 263.113281 114.082031 263.234375 114.34375 L 264.519531 117.226562 C 264.847656 117.957031 265.804688 118.117188 266.351562 117.527344 L 275.359375 107.808594 C 276.023438 107.09375 275.507812 105.9375 274.535156 105.945312 L 234.0625 106.394531 C 233.757812 106.398438 233.476562 106.519531 233.269531 106.738281 L 205.203125 136.433594 C 204.527344 137.144531 205.039062 138.3125 206.023438 138.308594 L 207.410156 138.292969 L 210.464844 145.105469 C 209.90625 145.515625 209.695312 146.273438 209.976562 146.929688 C 210.148438 147.34375 210.492188 147.636719 210.882812 147.773438 Z M 261.832031 115.765625 C 261.902344 115.78125 261.964844 115.835938 262 115.910156 L 269.199219 131.441406 C 269.285156 131.628906 269.136719 131.839844 268.929688 131.8125 C 265.722656 131.441406 246.445312 130.179688 228.589844 150.605469 C 228.460938 150.746094 228.234375 150.71875 228.152344 150.550781 L 220.609375 134.277344 C 220.574219 134.199219 220.574219 134.109375 220.621094 134.035156 C 221.691406 132.164062 235.75 108.636719 261.832031 115.765625 Z M 261.832031 115.765625 " fill-opacity="1" fill-rule="nonzero"/></g></g></g><g clip-path="url(#2238c0a00b)"><path fill="#050276" d="M 12.65625 240.152344 L 361.539062 240.152344 L 361.539062 261.609375 L 12.65625 261.609375 Z M 12.65625 240.152344 " fill-opacity="1" fill-rule="nonzero"/></g><g fill="#ffffff" fill-opacity="1"><g transform="translate(74.92565, 256.505434)"><g><path d="M 12.359375 -5.828125 C 12.359375 -4.628906 12.117188 -3.570312 11.640625 -2.65625 C 11.171875 -1.738281 10.492188 -1.039062 9.609375 -0.5625 C 8.722656 -0.0820312 7.6875 0.15625 6.5 0.15625 C 4.6875 0.15625 3.265625 -0.375 2.234375 -1.4375 C 1.203125 -2.507812 0.6875 -3.972656 0.6875 -5.828125 C 0.6875 -7.679688 1.195312 -9.128906 2.21875 -10.171875 C 3.25 -11.210938 4.679688 -11.734375 6.515625 -11.734375 C 8.347656 -11.734375 9.78125 -11.207031 10.8125 -10.15625 C 11.84375 -9.101562 12.359375 -7.660156 12.359375 -5.828125 Z M 9.890625 -5.828125 C 9.890625 -7.078125 9.59375 -8.054688 9 -8.765625 C 8.414062 -9.472656 7.585938 -9.828125 6.515625 -9.828125 C 5.429688 -9.828125 4.59375 -9.472656 4 -8.765625 C 3.414062 -8.066406 3.125 -7.085938 3.125 -5.828125 C 3.125 -4.554688 3.425781 -3.554688 4.03125 -2.828125 C 4.632812 -2.097656 5.457031 -1.734375 6.5 -1.734375 C 7.582031 -1.734375 8.414062 -2.085938 9 -2.796875 C 9.59375 -3.515625 9.890625 -4.523438 9.890625 -5.828125 Z M 9.890625 -5.828125 "/></g></g></g><g fill="#ffffff" fill-opacity="1"><g transform="translate(87.992055, 256.505434)"><g/></g></g><g fill="#ffffff" fill-opacity="1"><g transform="translate(92.657685, 256.505434)"><g/></g></g><g fill="#ffffff" fill-opacity="1"><g transform="translate(97.323315, 256.505434)"><g/></g></g><g fill="#ffffff" fill-opacity="1"><g transform="translate(101.988945, 256.505434)"><g/></g></g><g fill="#ffffff" fill-opacity="1"><g transform="translate(106.660023, 256.505434)"><g><path d="M 6.84375 0 L 4.390625 0 L 0.109375 -11.5625 L 2.640625 -11.5625 L 5.015625 -4.140625 C 5.160156 -3.648438 5.363281 -2.921875 5.625 -1.953125 L 5.796875 -2.65625 L 6.21875 -4.140625 L 8.59375 -11.5625 L 11.09375 -11.5625 Z M 6.84375 0 "/></g></g></g><g fill="#ffffff" fill-opacity="1"><g transform="translate(117.863147, 256.505434)"><g/></g></g><g fill="#ffffff" fill-opacity="1"><g transform="translate(122.528777, 256.505434)"><g/></g></g><g fill="#ffffff" fill-opacity="1"><g transform="translate(127.194407, 256.505434)"><g/></g></g><g fill="#ffffff" fill-opacity="1"><g transform="translate(131.860037, 256.505434)"><g/></g></g><g fill="#ffffff" fill-opacity="1"><g transform="translate(136.531114, 256.505434)"><g><path d="M 1.125 0 L 1.125 -11.5625 L 10.21875 -11.5625 L 10.21875 -9.6875 L 3.546875 -9.6875 L 3.546875 -6.78125 L 9.703125 -6.78125 L 9.703125 -4.90625 L 3.546875 -4.90625 L 3.546875 -1.875 L 10.546875 -1.875 L 10.546875 0 Z M 1.125 0 "/></g></g></g><g fill="#ffffff" fill-opacity="1"><g transform="translate(147.734242, 256.505434)"><g/></g></g><g fill="#ffffff" fill-opacity="1"><g transform="translate(152.399872, 256.505434)"><g/></g></g><g fill="#ffffff" fill-opacity="1"><g transform="translate(157.065502, 256.505434)"><g/></g></g><g fill="#ffffff" fill-opacity="1"><g transform="translate(161.731133, 256.505434)"><g/></g></g><g fill="#ffffff" fill-opacity="1"><g transform="translate(166.402206, 256.505434)"><g><path d="M 9.0625 0 L 6.375 -4.390625 L 3.546875 -4.390625 L 3.546875 0 L 1.125 0 L 1.125 -11.5625 L 6.890625 -11.5625 C 8.273438 -11.5625 9.34375 -11.265625 10.09375 -10.671875 C 10.84375 -10.078125 11.21875 -9.222656 11.21875 -8.109375 C 11.21875 -7.296875 10.984375 -6.597656 10.515625 -6.015625 C 10.054688 -5.429688 9.4375 -5.046875 8.65625 -4.859375 L 11.78125 0 Z M 8.78125 -8.015625 C 8.78125 -9.117188 8.066406 -9.671875 6.640625 -9.671875 L 3.546875 -9.671875 L 3.546875 -6.265625 L 6.703125 -6.265625 C 7.378906 -6.265625 7.894531 -6.414062 8.25 -6.71875 C 8.601562 -7.03125 8.78125 -7.460938 8.78125 -8.015625 Z M 8.78125 -8.015625 "/></g></g></g><g fill="#ffffff" fill-opacity="1"><g transform="translate(178.531115, 256.505434)"><g/></g></g><g fill="#ffffff" fill-opacity="1"><g transform="translate(183.196745, 256.505434)"><g/></g></g><g fill="#ffffff" fill-opacity="1"><g transform="translate(187.862375, 256.505434)"><g/></g></g><g fill="#ffffff" fill-opacity="1"><g transform="translate(192.528006, 256.505434)"><g/></g></g><g fill="#ffffff" fill-opacity="1"><g transform="translate(197.199079, 256.505434)"><g><path d="M 10.546875 -3.328125 C 10.546875 -2.191406 10.125 -1.328125 9.28125 -0.734375 C 8.445312 -0.140625 7.21875 0.15625 5.59375 0.15625 C 4.113281 0.15625 2.953125 -0.101562 2.109375 -0.625 C 1.265625 -1.144531 0.722656 -1.941406 0.484375 -3.015625 L 2.828125 -3.390625 C 2.984375 -2.785156 3.289062 -2.34375 3.75 -2.0625 C 4.207031 -1.789062 4.84375 -1.65625 5.65625 -1.65625 C 7.34375 -1.65625 8.1875 -2.164062 8.1875 -3.1875 C 8.1875 -3.519531 8.085938 -3.789062 7.890625 -4 C 7.703125 -4.21875 7.429688 -4.394531 7.078125 -4.53125 C 6.722656 -4.675781 6.046875 -4.847656 5.046875 -5.046875 C 4.179688 -5.253906 3.578125 -5.414062 3.234375 -5.53125 C 2.898438 -5.65625 2.597656 -5.800781 2.328125 -5.96875 C 2.054688 -6.132812 1.820312 -6.335938 1.625 -6.578125 C 1.4375 -6.816406 1.289062 -7.09375 1.1875 -7.40625 C 1.082031 -7.71875 1.03125 -8.082031 1.03125 -8.5 C 1.03125 -9.539062 1.421875 -10.335938 2.203125 -10.890625 C 2.984375 -11.453125 4.125 -11.734375 5.625 -11.734375 C 7.0625 -11.734375 8.140625 -11.507812 8.859375 -11.0625 C 9.578125 -10.613281 10.039062 -9.867188 10.25 -8.828125 L 7.890625 -8.515625 C 7.773438 -9.015625 7.53125 -9.390625 7.15625 -9.640625 C 6.789062 -9.890625 6.265625 -10.015625 5.578125 -10.015625 C 4.109375 -10.015625 3.375 -9.554688 3.375 -8.640625 C 3.375 -8.335938 3.453125 -8.085938 3.609375 -7.890625 C 3.765625 -7.703125 3.992188 -7.539062 4.296875 -7.40625 C 4.609375 -7.269531 5.234375 -7.101562 6.171875 -6.90625 C 7.273438 -6.664062 8.066406 -6.445312 8.546875 -6.25 C 9.023438 -6.050781 9.40625 -5.816406 9.6875 -5.546875 C 9.96875 -5.285156 10.179688 -4.96875 10.328125 -4.59375 C 10.472656 -4.226562 10.546875 -3.804688 10.546875 -3.328125 Z M 10.546875 -3.328125 "/></g></g></g><g fill="#ffffff" fill-opacity="1"><g transform="translate(208.402203, 256.505434)"><g/></g></g><g fill="#ffffff" fill-opacity="1"><g transform="translate(213.067833, 256.505434)"><g/></g></g><g fill="#ffffff" fill-opacity="1"><g transform="translate(217.733463, 256.505434)"><g/></g></g><g fill="#ffffff" fill-opacity="1"><g transform="translate(222.399094, 256.505434)"><g/></g></g><g fill="#ffffff" fill-opacity="1"><g transform="translate(227.070175, 256.505434)"><g><path d="M 1.125 0 L 1.125 -11.5625 L 10.21875 -11.5625 L 10.21875 -9.6875 L 3.546875 -9.6875 L 3.546875 -6.78125 L 9.703125 -6.78125 L 9.703125 -4.90625 L 3.546875 -4.90625 L 3.546875 -1.875 L 10.546875 -1.875 L 10.546875 0 Z M 1.125 0 "/></g></g></g><g fill="#ffffff" fill-opacity="1"><g transform="translate(238.273299, 256.505434)"><g/></g></g><g fill="#ffffff" fill-opacity="1"><g transform="translate(242.938929, 256.505434)"><g/></g></g><g fill="#ffffff" fill-opacity="1"><g transform="translate(247.604559, 256.505434)"><g/></g></g><g fill="#ffffff" fill-opacity="1"><g transform="translate(252.270189, 256.505434)"><g/></g></g><g fill="#ffffff" fill-opacity="1"><g transform="translate(256.941263, 256.505434)"><g><path d="M 9.296875 0 L 8.265625 -2.953125 L 3.859375 -2.953125 L 2.84375 0 L 0.421875 0 L 4.640625 -11.5625 L 7.484375 -11.5625 L 11.6875 0 Z M 6.0625 -9.78125 L 6.015625 -9.59375 C 5.960938 -9.394531 5.894531 -9.171875 5.8125 -8.921875 C 5.738281 -8.671875 5.269531 -7.285156 4.40625 -4.765625 L 7.71875 -4.765625 L 6.578125 -8.09375 L 6.234375 -9.203125 Z M 6.0625 -9.78125 "/></g></g></g><g fill="#ffffff" fill-opacity="1"><g transform="translate(269.070172, 256.505434)"><g/></g></g><g fill="#ffffff" fill-opacity="1"><g transform="translate(273.735802, 256.505434)"><g/></g></g><g fill="#ffffff" fill-opacity="1"><g transform="translate(278.401432, 256.505434)"><g/></g></g><g fill="#ffffff" fill-opacity="1"><g transform="translate(283.067062, 256.505434)"><g/></g></g><g fill="#ffffff" fill-opacity="1"><g transform="translate(287.738136, 256.505434)"><g><path d="M 10.546875 -3.328125 C 10.546875 -2.191406 10.125 -1.328125 9.28125 -0.734375 C 8.445312 -0.140625 7.21875 0.15625 5.59375 0.15625 C 4.113281 0.15625 2.953125 -0.101562 2.109375 -0.625 C 1.265625 -1.144531 0.722656 -1.941406 0.484375 -3.015625 L 2.828125 -3.390625 C 2.984375 -2.785156 3.289062 -2.34375 3.75 -2.0625 C 4.207031 -1.789062 4.84375 -1.65625 5.65625 -1.65625 C 7.34375 -1.65625 8.1875 -2.164062 8.1875 -3.1875 C 8.1875 -3.519531 8.085938 -3.789062 7.890625 -4 C 7.703125 -4.21875 7.429688 -4.394531 7.078125 -4.53125 C 6.722656 -4.675781 6.046875 -4.847656 5.046875 -5.046875 C 4.179688 -5.253906 3.578125 -5.414062 3.234375 -5.53125 C 2.898438 -5.65625 2.597656 -5.800781 2.328125 -5.96875 C 2.054688 -6.132812 1.820312 -6.335938 1.625 -6.578125 C 1.4375 -6.816406 1.289062 -7.09375 1.1875 -7.40625 C 1.082031 -7.71875 1.03125 -8.082031 1.03125 -8.5 C 1.03125 -9.539062 1.421875 -10.335938 2.203125 -10.890625 C 2.984375 -11.453125 4.125 -11.734375 5.625 -11.734375 C 7.0625 -11.734375 8.140625 -11.507812 8.859375 -11.0625 C 9.578125 -10.613281 10.039062 -9.867188 10.25 -8.828125 L 7.890625 -8.515625 C 7.773438 -9.015625 7.53125 -9.390625 7.15625 -9.640625 C 6.789062 -9.890625 6.265625 -10.015625 5.578125 -10.015625 C 4.109375 -10.015625 3.375 -9.554688 3.375 -8.640625 C 3.375 -8.335938 3.453125 -8.085938 3.609375 -7.890625 C 3.765625 -7.703125 3.992188 -7.539062 4.296875 -7.40625 C 4.609375 -7.269531 5.234375 -7.101562 6.171875 -6.90625 C 7.273438 -6.664062 8.066406 -6.445312 8.546875 -6.25 C 9.023438 -6.050781 9.40625 -5.816406 9.6875 -5.546875 C 9.96875 -5.285156 10.179688 -4.96875 10.328125 -4.59375 C 10.472656 -4.226562 10.546875 -3.804688 10.546875 -3.328125 Z M 10.546875 -3.328125 "/></g></g></g></svg>